<svg xmlns="http://www.w3.org/2000/svg" width="20" height="20" viewBox="0 0 20 20" fill="black"><g clip-path="url(#clip0_10415_32474)"><path d="M1.66663 10H18.3333M1.66663 10C1.66663 14.6024 5.39759 18.3333 9.99996 18.3333M1.66663 10C1.66663 5.39763 5.39759 1.66667 9.99996 1.66667M18.3333 10C18.3333 14.6024 14.6023 18.3333 9.99996 18.3333M18.3333 10C18.3333 5.39763 14.6023 1.66667 9.99996 1.66667M9.99996 1.66667C12.0844 3.94863 13.2689 6.91003 13.3333 10C13.2689 13.09 12.0844 16.0514 9.99996 18.3333M9.99996 1.66667C7.91556 3.94863 6.731 6.91003 6.66663 10C6.731 13.09 7.91556 16.0514 9.99996 18.3333" stroke="#2B2E33" stroke-width="1.5" stroke-linecap="round" stroke-linejoin="round"></path></g><defs><clipPath id="clip0_10415_32474"><rect width="20" height="20" fill="white"></rect></clipPath></defs></svg>