<svg width="46" height="45" viewBox="0 0 46 45" fill="none" xmlns="http://www.w3.org/2000/svg">
<path d="M19.6592 8.01081C20.4497 4.75226 25.0852 4.75226 25.8757 8.01081C25.9943 8.50034 26.2268 8.95494 26.5543 9.33762C26.8818 9.72029 27.2951 10.0202 27.7604 10.213C28.2257 10.4058 28.73 10.486 29.2322 10.4471C29.7344 10.4081 30.2203 10.2512 30.6503 9.98896C33.5136 8.24463 36.7926 11.5217 35.0483 14.3869C34.7864 14.8168 34.6297 15.3024 34.5909 15.8042C34.552 16.306 34.6321 16.81 34.8247 17.275C35.0173 17.7401 35.3169 18.1531 35.6991 18.4806C36.0813 18.8081 36.5355 19.0407 37.0246 19.1597C40.2831 19.9502 40.2831 24.5857 37.0246 25.3762C36.535 25.4948 36.0804 25.7273 35.6977 26.0548C35.3151 26.3823 35.0151 26.7956 34.8223 27.2609C34.6296 27.7262 34.5494 28.2305 34.5883 28.7327C34.6272 29.2349 34.7842 29.7208 35.0464 30.1508C36.7907 33.0141 33.5136 36.2931 30.6485 34.5488C30.2186 34.2869 29.733 34.1302 29.2312 34.0914C28.7293 34.0525 28.2254 34.1326 27.7603 34.3252C27.2953 34.5178 26.8822 34.8173 26.5548 35.1996C26.2273 35.5818 25.9946 36.036 25.8757 36.525C25.0852 39.7836 20.4497 39.7836 19.6592 36.525C19.5406 36.0355 19.3081 35.5809 18.9806 35.1982C18.653 34.8156 18.2398 34.5156 17.7745 34.3228C17.3091 34.13 16.8049 34.0499 16.3027 34.0888C15.8005 34.1277 15.3146 34.2847 14.8846 34.5469C12.0213 36.2912 8.74228 33.0141 10.4866 30.149C10.7484 29.7191 10.9052 29.2335 10.944 28.7316C10.9829 28.2298 10.9027 27.7259 10.7102 27.2608C10.5176 26.7958 10.218 26.3827 9.83578 26.0553C9.45353 25.7278 8.99941 25.4951 8.51032 25.3762C5.25177 24.5857 5.25177 19.9502 8.51032 19.1597C8.99985 19.0411 9.45445 18.8085 9.83713 18.481C10.2198 18.1535 10.5197 17.7403 10.7125 17.275C10.9053 16.8096 10.9855 16.3054 10.9466 15.8032C10.9076 15.301 10.7507 14.8151 10.4885 14.385C8.74414 11.5217 12.0213 8.24277 14.8864 9.9871C16.7421 11.1153 19.147 10.117 19.6592 8.01081Z" stroke="#191B1F" stroke-width="2.78351" stroke-linecap="round" stroke-linejoin="round"/>
<path d="M17.2004 22.2679C17.2004 23.7444 17.7869 25.1604 18.831 26.2044C19.875 27.2484 21.291 27.8349 22.7674 27.8349C24.2439 27.8349 25.6599 27.2484 26.7039 26.2044C27.7479 25.1604 28.3344 23.7444 28.3344 22.2679C28.3344 20.7915 27.7479 19.3755 26.7039 18.3315C25.6599 17.2874 24.2439 16.7009 22.7674 16.7009C21.291 16.7009 19.875 17.2874 18.831 18.3315C17.7869 19.3755 17.2004 20.7915 17.2004 22.2679Z" stroke="#191B1F" stroke-width="2.78351" stroke-linecap="round" stroke-linejoin="round"/>
</svg>
